Coordinates
version=1
nRows=60
nColumns=12
inDegrees=yes

Units are S.I. units (second, meters, Newtons, ...)
Angles are in degrees

endheader
time	SC_y	SC_z	SC_x	AC_y	AC_z	AC_x	GH_y	GH_z	GH_yy	EL_x	PS_y
       0.0              -47.48          10.45          29.17          51.65          9.801         -12.35          144.8          12.91          16.38          80.93          154.9
   0.02161              -47.48          10.45          29.18          51.65          9.798         -12.35          144.7          12.92          16.36          80.93          154.9
   0.04322              -47.47          10.46          29.19          51.66          9.795         -12.35          144.7          12.93          16.34          80.92          154.9
   0.06483              -47.47          10.46          29.19          51.66          9.791         -12.34          144.7          12.94          16.32          80.92          154.9
   0.08644              -47.46          10.47           29.2          51.66          9.788         -12.34          144.6          12.95           16.3          80.92          154.9
    0.1081              -47.45          10.47          29.21          51.67          9.784         -12.34          144.6          12.96          16.28          80.91          154.9
    0.1297              -47.45          10.47          29.22          51.67          9.779         -12.33          144.5          12.97          16.25          80.91          154.9
    0.1513              -47.44          10.48          29.23          51.67          9.775         -12.33          144.5          12.99          16.22          80.91          154.9
    0.1729              -47.43          10.48          29.24          51.68           9.77         -12.33          144.4           13.0          16.19           80.9          154.9
    0.1945              -47.42          10.49          29.25          51.68          9.765         -12.32          144.3          13.02          16.16           80.9          154.9
    0.2161              -47.42           10.5          29.26          51.69          9.759         -12.32          144.3          13.03          16.13          80.89          154.9
    0.2377              -47.41           10.5          29.28          51.69          9.753         -12.31          144.2          13.05          16.09          80.89          154.9
    0.2593               -47.4          10.51          29.29           51.7          9.747         -12.31          144.1          13.07          16.05          80.88          154.9
    0.2809              -47.39          10.52          29.31           51.7           9.74          -12.3          144.1          13.09          16.01          80.88          154.9
    0.3026              -47.37          10.53          29.32          51.71          9.732         -12.29          144.0          13.11          15.96          80.87          154.9
    0.3242              -47.36          10.54          29.34          51.72          9.724         -12.29          143.9          13.13          15.91          80.86          154.9
    0.3458              -47.35          10.55          29.36          51.72          9.715         -12.28          143.8          13.16          15.86          80.86          154.9
    0.3674              -47.33          10.56          29.38          51.73          9.705         -12.27          143.7          13.19           15.8          80.85          154.9
     0.389              -47.31          10.57           29.4          51.74          9.695         -12.26          143.5          13.22          15.74          80.84          154.9
    0.4106               -47.3          10.58          29.43          51.75          9.683         -12.25          143.4          13.25          15.67          80.83          154.8
    0.4322              -47.28           10.6          29.45          51.76           9.67         -12.24          143.2          13.29          15.59          80.82          154.8
    0.4538              -47.25          10.61          29.48          51.77          9.656         -12.23          143.1          13.33           15.5          80.81          154.8
    0.4754              -47.23          10.63          29.52          51.79           9.64         -12.22          142.9          13.37          15.41           80.8          154.8
    0.4971               -47.2          10.65          29.55           51.8          9.623          -12.2          142.7          13.42          15.31          80.78          154.8
    0.5187              -47.17          10.67          29.59          51.82          9.604         -12.18          142.5          13.47          15.19          80.77          154.8
    0.5403              -47.14          10.69          29.64          51.84          9.583         -12.17          142.2          13.53          15.06          80.75          154.8
    0.5619               -47.1          10.72          29.69          51.86          9.559         -12.15          141.9           13.6          14.92          80.73          154.8
    0.5835              -47.06          10.75          29.75          51.88          9.532         -12.12          141.6          13.68          14.75          80.71          154.7
    0.6051              -47.01          10.79          29.81           51.9          9.501          -12.1          141.3          13.76          14.57          80.68          154.7
    0.6267              -46.96          10.82          29.89          51.93          9.467         -12.07          140.9          13.86          14.36          80.65          154.7
    0.6483              -46.89          10.87          29.97          51.97          9.427         -12.03          140.4          13.97          14.12          80.62          154.7
    0.6699              -46.82          10.92          30.07          52.01          9.382          -12.0          139.9           14.1          13.85          80.58          154.6
    0.6916              -46.74          10.98          30.18          52.05           9.33         -11.95          139.3          14.25          13.53          80.54          154.6
    0.7132              -46.65          11.05          30.31           52.1          9.269          -11.9          138.6          14.42          13.17          80.49          154.6
    0.7348              -46.53          11.13          30.46          52.16          9.198         -11.84          137.8          14.63          12.74          80.43          154.5
    0.7564               -46.4          11.22          30.64          52.23          9.114         -11.77          136.8          14.86          12.23          80.36          154.5
     0.778              -46.25          11.33          30.85          52.32          9.015         -11.68          135.6          15.15          11.63          80.28          154.4
    0.7996              -46.06          11.46          31.11          52.42          8.895         -11.58          134.2          15.49          10.91          80.18          154.3
    0.8212              -45.83          11.63          31.42          52.54          8.751         -11.46          132.6           15.9          10.03          80.06          154.2
    0.8428              -45.56          11.82          31.79          52.69          8.574         -11.31          130.5           16.4          8.969          79.92          154.1
    0.8644              -45.21          12.07          32.26          52.87          8.357         -11.12          128.0          17.02          7.653          79.74          153.9
    0.8861              -44.79          12.37          32.84           53.1          8.085         -10.89          124.8          17.79          6.013          79.51          153.7
    0.9077              -44.25          12.76          33.57          53.39          7.743          -10.6          120.8          18.76          3.947          79.23          153.5
    0.9293              -43.57          13.24           34.5          53.76          7.308         -10.23          115.8          19.99           1.32          78.87          153.2
    0.9509              -42.69          13.87          35.69          54.23          6.752         -9.761          109.3          21.57         -2.042          78.41          152.8
    0.9725              -41.57          14.67          37.21          54.84          6.038         -9.154          101.0           23.6         -6.357          77.82          152.3
    0.9941              -40.14          15.69          39.16          55.61          5.126         -8.379           90.4          26.19         -11.87          77.07          151.7
     1.016              -38.34          16.97          41.61          56.58          3.979         -7.404          77.06          29.45          -18.8          76.12          150.9
     1.037              -36.15          18.54          44.59          57.76          2.581         -6.217          60.81          33.42         -27.24          74.97          149.9
     1.059               -33.6          20.35          48.05          59.13         0.9611          -4.84          41.97          38.02         -37.03          73.63          148.8
     1.081              -30.85          22.32           51.8          60.62        -0.7932         -3.349          21.57           43.0         -47.63          72.18          147.6
     1.102               -28.1          24.28          55.55           62.1         -2.547         -1.859          1.171          47.98         -58.23          70.73          146.3
     1.124              -25.55           26.1          59.01          63.47         -4.167        -0.4819         -17.67          52.58         -68.02          69.39          145.2
     1.145              -23.36          27.66          61.99          64.66         -5.565         0.7059         -33.92          56.55         -76.46          68.24          144.2
     1.167              -21.56          28.95          64.44          65.63         -6.712          1.681         -47.26          59.81         -83.39          67.29          143.4
     1.189              -20.13          29.97          66.39           66.4         -7.624          2.456         -57.87           62.4          -88.9          66.54          142.8
      1.21               -19.0          30.77          67.91           67.0         -8.338          3.062         -66.17          64.43         -93.22          65.95          142.3
     1.232              -18.13          31.39           69.1          67.47         -8.895          3.535         -72.64          66.01         -96.58          65.49          141.9
     1.253              -17.45          31.88          70.03          67.84          -9.33          3.905          -77.7          67.24         -99.21          65.13          141.6
     1.275              -16.91          32.26          70.76          68.13         -9.672          4.195         -81.67          68.22         -101.3          64.85          141.4
